<svg xmlns="http://www.w3.org/2000/svg" xmlns:xlink="http://www.w3.org/1999/xlink" width="300" zoomAndPan="magnify" viewBox="0 0 224.87999 74.999997" height="100" preserveAspectRatio="xMidYMid meet" version="1.2"><defs><clipPath id="e8b3aa71df"><path d="M 24 68 L 26 68 L 26 68.875 L 24 68.875 Z M 24 68 "/></clipPath><clipPath id="16ec810342"><path d="M 2 38 L 40 38 L 40 68.875 L 2 68.875 Z M 2 38 "/></clipPath><clipPath id="f7dcd693e3"><path d="M 0 6.308594 L 63 6.308594 L 63 68.875 L 0 68.875 Z M 0 6.308594 "/></clipPath><clipPath id="196ceb2570"><path d="M 24 6.308594 L 65 6.308594 L 65 39 L 24 39 Z M 24 6.308594 "/></clipPath><clipPath id="8cbe99e696"><path d="M 22 56 L 35 56 L 35 68.875 L 22 68.875 Z M 22 56 "/></clipPath><clipPath id="3f4d1db16e"><path d="M 24 68 L 26 68 L 26 68.875 L 24 68.875 Z M 24 68 "/></clipPath></defs><g id="7f829fd003"><path style=" stroke:none;fill-rule:nonzero;fill:#5271ff;fill-opacity:1;" d="M 2.808594 45.871094 C 2.617188 45.402344 2.519531 44.898438 2.523438 44.378906 C 2.523438 44.347656 2.527344 44.3125 2.527344 44.28125 C 2.511719 44.820312 2.601562 45.363281 2.808594 45.871094 "/><path style=" stroke:none;fill-rule:nonzero;fill:#5271ff;fill-opacity:1;" d="M 6.367188 48.261719 C 6.460938 48.261719 6.558594 48.257812 6.648438 48.25 C 6.648438 48.253906 6.648438 48.253906 6.648438 48.253906 C 6.628906 48.253906 6.613281 48.253906 6.597656 48.257812 C 6.589844 48.257812 6.582031 48.257812 6.574219 48.257812 L 6.570312 48.257812 C 6.539062 48.261719 6.507812 48.261719 6.476562 48.261719 C 6.4375 48.261719 6.394531 48.261719 6.355469 48.261719 L 6.324219 48.261719 C 6.265625 48.261719 6.207031 48.261719 6.148438 48.257812 C 6.140625 48.257812 6.140625 48.257812 6.132812 48.257812 L 6.128906 48.257812 C 6.074219 48.253906 6.019531 48.25 5.964844 48.242188 C 5.945312 48.238281 5.929688 48.238281 5.910156 48.234375 C 5.882812 48.234375 5.855469 48.230469 5.828125 48.226562 C 5.816406 48.222656 5.804688 48.222656 5.792969 48.21875 C 5.789062 48.21875 5.789062 48.21875 5.785156 48.21875 C 5.78125 48.21875 5.777344 48.21875 5.777344 48.21875 C 5.773438 48.21875 5.773438 48.21875 5.769531 48.214844 C 5.757812 48.214844 5.742188 48.214844 5.726562 48.210938 C 5.707031 48.207031 5.6875 48.203125 5.667969 48.199219 C 5.664062 48.199219 5.660156 48.199219 5.65625 48.195312 C 5.632812 48.191406 5.605469 48.1875 5.582031 48.183594 C 5.582031 48.183594 5.578125 48.183594 5.574219 48.183594 C 5.5625 48.179688 5.550781 48.175781 5.535156 48.171875 C 5.519531 48.167969 5.503906 48.167969 5.488281 48.160156 C 5.460938 48.15625 5.433594 48.148438 5.40625 48.140625 C 5.402344 48.140625 5.402344 48.140625 5.398438 48.140625 C 5.371094 48.132812 5.34375 48.125 5.316406 48.117188 C 5.3125 48.117188 5.3125 48.117188 5.308594 48.113281 C 5.296875 48.109375 5.28125 48.109375 5.265625 48.101562 C 5.625 48.207031 5.996094 48.261719 6.367188 48.261719 "/><path style=" stroke:none;fill-rule:nonzero;fill:#5271ff;fill-opacity:1;" d="M 6.972656 48.214844 C 6.941406 48.21875 6.910156 48.222656 6.882812 48.226562 C 6.867188 48.230469 6.851562 48.230469 6.835938 48.234375 C 6.828125 48.234375 6.820312 48.234375 6.8125 48.234375 C 6.8125 48.234375 6.8125 48.238281 6.808594 48.238281 C 6.808594 48.234375 6.808594 48.238281 6.804688 48.238281 C 6.804688 48.238281 6.800781 48.238281 6.796875 48.238281 C 6.785156 48.238281 6.773438 48.242188 6.761719 48.242188 L 6.757812 48.242188 C 6.726562 48.246094 6.695312 48.25 6.667969 48.25 C 6.714844 48.246094 6.769531 48.242188 6.820312 48.234375 C 6.867188 48.230469 6.921875 48.222656 6.972656 48.214844 "/><path style=" stroke:none;fill-rule:nonzero;fill:#5271ff;fill-opacity:1;" d="M 10.34375 48.480469 C 10.148438 48.667969 9.980469 48.871094 9.835938 49.085938 C 9.980469 48.871094 10.148438 48.667969 10.339844 48.480469 L 10.34375 48.480469 "/><path style=" stroke:none;fill-rule:nonzero;fill:#5271ff;fill-opacity:1;" d="M 10.285156 53.914062 C 10.328125 53.960938 10.375 54.003906 10.421875 54.046875 C 10.375 54.003906 10.328125 53.960938 10.285156 53.914062 "/><path style=" stroke:none;fill-rule:nonzero;fill:#5271ff;fill-opacity:1;" d="M 12.300781 54.996094 C 12.382812 55.011719 12.464844 55.027344 12.546875 55.039062 C 12.503906 55.03125 12.464844 55.027344 12.421875 55.019531 C 12.390625 55.015625 12.359375 55.007812 12.328125 55.003906 C 12.324219 55.003906 12.320312 55.003906 12.316406 55 C 12.3125 55 12.304688 55 12.300781 54.996094 "/><path style=" stroke:none;fill-rule:nonzero;fill:#5271ff;fill-opacity:1;" d="M 12.546875 55.039062 C 12.578125 55.039062 12.609375 55.042969 12.640625 55.046875 C 12.628906 55.046875 12.613281 55.046875 12.597656 55.042969 C 12.582031 55.042969 12.5625 55.039062 12.546875 55.039062 "/><path style=" stroke:none;fill-rule:nonzero;fill:#5271ff;fill-opacity:1;" d="M 12.738281 55.054688 C 12.773438 55.058594 12.804688 55.0625 12.835938 55.0625 C 12.824219 55.0625 12.8125 55.0625 12.800781 55.0625 C 12.792969 55.0625 12.78125 55.0625 12.773438 55.058594 C 12.761719 55.058594 12.75 55.058594 12.738281 55.054688 "/><path style=" stroke:none;fill-rule:nonzero;fill:#5271ff;fill-opacity:1;" d="M 12.933594 55.066406 C 13.070312 55.070312 13.207031 55.066406 13.339844 55.054688 C 13.316406 55.058594 13.289062 55.058594 13.265625 55.0625 C 13.238281 55.0625 13.214844 55.066406 13.1875 55.066406 C 13.136719 55.066406 13.082031 55.066406 13.03125 55.066406 L 12.988281 55.066406 C 12.96875 55.066406 12.949219 55.066406 12.933594 55.066406 "/><path style=" stroke:none;fill-rule:nonzero;fill:#5271ff;fill-opacity:1;" d="M 13.539062 55.035156 C 13.519531 55.039062 13.5 55.039062 13.476562 55.042969 C 13.46875 55.042969 13.460938 55.042969 13.453125 55.042969 C 13.480469 55.039062 13.511719 55.039062 13.539062 55.035156 "/><path style=" stroke:none;fill-rule:nonzero;fill:#5271ff;fill-opacity:1;" d="M 16.921875 60.691406 C 16.933594 60.703125 16.941406 60.710938 16.949219 60.71875 C 16.9375 60.710938 16.929688 60.703125 16.921875 60.691406 "/><path style=" stroke:none;fill-rule:nonzero;fill:#5271ff;fill-opacity:1;" d="M 17.804688 61.378906 C 17.824219 61.386719 17.84375 61.398438 17.863281 61.410156 C 17.835938 61.398438 17.816406 61.382812 17.792969 61.371094 L 17.804688 61.378906 "/><path style=" stroke:none;fill-rule:nonzero;fill:#5271ff;fill-opacity:1;" d="M 18.054688 61.507812 C 18.070312 61.515625 18.085938 61.519531 18.097656 61.527344 C 18.054688 61.507812 18.007812 61.488281 17.964844 61.464844 C 17.996094 61.476562 18.023438 61.492188 18.054688 61.507812 "/><path style=" stroke:none;fill-rule:nonzero;fill:#5271ff;fill-opacity:1;" d="M 18.367188 61.636719 C 18.390625 61.644531 18.410156 61.652344 18.433594 61.660156 C 18.347656 61.632812 18.265625 61.601562 18.183594 61.566406 C 18.167969 61.5625 18.152344 61.554688 18.136719 61.546875 C 18.171875 61.558594 18.195312 61.570312 18.222656 61.582031 C 18.273438 61.601562 18.3125 61.617188 18.355469 61.632812 L 18.367188 61.636719 "/><path style=" stroke:none;fill-rule:nonzero;fill:#5271ff;fill-opacity:1;" d="M 19.625 61.871094 C 19.648438 61.875 19.671875 61.875 19.695312 61.875 L 19.652344 61.875 C 19.644531 61.875 19.632812 61.875 19.625 61.871094 "/><path style=" stroke:none;fill-rule:nonzero;fill:#5271ff;fill-opacity:1;" d="M 19.992188 52.359375 L 20.335938 52.023438 L 19.996094 52.359375 L 19.652344 52.695312 L 17.007812 55.285156 C 16.171875 56.105469 15.765625 57.257812 15.871094 58.398438 C 15.855469 58.261719 15.847656 58.128906 15.851562 57.992188 C 15.863281 56.964844 16.273438 56.003906 17.003906 55.285156 L 19.648438 52.695312 L 19.992188 52.359375 "/><path style=" stroke:none;fill-rule:nonzero;fill:#5271ff;fill-opacity:1;" d="M 20.457031 61.796875 C 20.546875 61.78125 20.636719 61.757812 20.726562 61.734375 C 20.636719 61.757812 20.546875 61.78125 20.457031 61.796875 "/><path style=" stroke:none;fill-rule:nonzero;fill:#5271ff;fill-opacity:1;" d="M 22.449219 60.707031 L 22.378906 60.777344 C 22.335938 60.820312 22.289062 60.863281 22.242188 60.90625 L 22.441406 60.703125 L 22.449219 60.707031 "/><path style=" stroke:none;fill-rule:nonzero;fill:#5271ff;fill-opacity:1;" d="M 22.515625 64.796875 C 22.515625 64.765625 22.515625 64.734375 22.519531 64.703125 C 22.515625 64.746094 22.515625 64.792969 22.515625 64.835938 L 22.515625 64.796875 "/><path style=" stroke:none;fill-rule:nonzero;fill:#5271ff;fill-opacity:1;" d="M 22.792969 63.402344 C 22.84375 63.261719 22.90625 63.132812 22.980469 63.003906 C 22.96875 63.023438 22.960938 63.042969 22.949219 63.0625 C 22.902344 63.152344 22.863281 63.238281 22.828125 63.320312 C 22.816406 63.347656 22.804688 63.375 22.792969 63.402344 "/><path style=" stroke:none;fill-rule:nonzero;fill:#5271ff;fill-opacity:1;" d="M 23.109375 62.78125 C 23.148438 62.71875 23.191406 62.65625 23.234375 62.597656 C 23.191406 62.65625 23.148438 62.71875 23.109375 62.78125 "/><g clip-rule="nonzero" clip-path="url(#e8b3aa71df)"><path style=" stroke:none;fill-rule:nonzero;fill:#5271ff;fill-opacity:1;" d="M 25.066406 68.453125 L 25.191406 68.496094 C 25.09375 68.46875 25 68.433594 24.910156 68.394531 C 24.957031 68.414062 25.011719 68.4375 25.066406 68.453125 "/></g><path style=" stroke:none;fill-rule:nonzero;fill:#5271ff;fill-opacity:1;" d="M 23.667969 62.089844 L 26.457031 59.359375 L 23.667969 62.09375 C 23.511719 62.246094 23.363281 62.417969 23.234375 62.597656 C 23.363281 62.417969 23.507812 62.246094 23.667969 62.089844 "/><path style=" stroke:none;fill-rule:nonzero;fill:#5271ff;fill-opacity:1;" d="M 28.464844 57.394531 L 27.144531 58.6875 L 26.457031 59.359375 L 27.144531 58.6875 L 28.464844 57.394531 "/><path style=" stroke:none;fill-rule:nonzero;fill:#5271ff;fill-opacity:1;" d="M 23.628906 22.140625 C 23.609375 22.261719 23.59375 22.386719 23.585938 22.507812 C 23.59375 22.386719 23.609375 22.265625 23.628906 22.140625 "/><path style=" stroke:none;fill-rule:nonzero;fill:#5271ff;fill-opacity:1;" d="M 23.738281 24.144531 C 23.664062 23.871094 23.613281 23.589844 23.589844 23.304688 C 23.617188 23.589844 23.667969 23.871094 23.738281 24.144531 "/><path style=" stroke:none;fill-rule:nonzero;fill:#5271ff;fill-opacity:1;" d="M 24.105469 25.085938 C 24.015625 24.914062 23.9375 24.738281 23.871094 24.558594 C 23.9375 24.738281 24.015625 24.914062 24.105469 25.085938 "/><path style=" stroke:none;fill-rule:nonzero;fill:#5271ff;fill-opacity:1;" d="M 27.144531 45.359375 L 25.828125 46.648438 L 25.777344 46.59375 L 27.0625 45.28125 L 27.144531 45.359375 "/><path style=" stroke:none;fill-rule:nonzero;fill:#5271ff;fill-opacity:1;" d="M 31.894531 38.824219 L 31.890625 38.824219 L 31.863281 38.792969 L 31.890625 38.824219 L 31.894531 38.824219 "/><path style=" stroke:none;fill-rule:nonzero;fill:#5271ff;fill-opacity:1;" d="M 32.160156 40.457031 L 32.148438 40.464844 L 32.144531 40.460938 L 32.15625 40.449219 L 32.160156 40.457031 "/><path style=" stroke:none;fill-rule:nonzero;fill:#5271ff;fill-opacity:1;" d="M 39.496094 46.59375 L 39.441406 46.648438 L 38.128906 45.359375 L 38.207031 45.28125 L 39.496094 46.59375 "/><g clip-rule="nonzero" clip-path="url(#16ec810342)"><path style=" stroke:none;fill-rule:nonzero;fill:#5271ff;fill-opacity:1;" d="M 38.207031 45.28125 L 38.128906 45.359375 L 39.441406 46.648438 L 39.496094 46.59375 Z M 31.976562 39.601562 L 31.976562 39.605469 Z M 31.972656 39.597656 L 31.976562 39.601562 Z M 31.890625 38.824219 L 31.863281 38.792969 L 31.890625 38.824219 L 31.894531 38.824219 Z M 27.0625 45.28125 L 25.777344 46.59375 L 25.828125 46.648438 L 27.144531 45.359375 Z M 2.527344 44.28125 C 2.527344 44.3125 2.523438 44.347656 2.523438 44.378906 C 2.519531 44.898438 2.617188 45.402344 2.808594 45.871094 C 2.601562 45.363281 2.511719 44.820312 2.527344 44.28125 Z M 10.339844 48.480469 C 10.148438 48.667969 9.980469 48.871094 9.835938 49.085938 C 9.980469 48.871094 10.148438 48.667969 10.34375 48.480469 Z M 10.285156 53.914062 C 10.328125 53.960938 10.375 54.003906 10.421875 54.046875 C 10.375 54.003906 10.328125 53.960938 10.285156 53.914062 Z M 15.917969 55.0625 C 15.917969 55.0625 15.914062 55.0625 15.914062 55.066406 C 15.917969 55.0625 15.917969 55.0625 15.921875 55.0625 C 15.917969 55.0625 15.917969 55.0625 15.917969 55.0625 Z M 16.179688 61.304688 C 16.207031 61.335938 16.234375 61.363281 16.261719 61.390625 C 16.234375 61.363281 16.207031 61.335938 16.179688 61.304688 Z M 16.667969 54.945312 C 16.644531 54.96875 16.613281 54.996094 16.589844 55.023438 C 16.617188 54.996094 16.644531 54.96875 16.671875 54.945312 Z M 16.921875 60.691406 C 16.929688 60.703125 16.9375 60.710938 16.949219 60.71875 C 16.941406 60.710938 16.933594 60.703125 16.921875 60.691406 Z M 17.804688 61.378906 L 17.792969 61.371094 C 17.816406 61.382812 17.835938 61.398438 17.863281 61.410156 C 17.84375 61.398438 17.824219 61.386719 17.804688 61.378906 Z M 18.054688 61.507812 C 18.023438 61.492188 17.996094 61.476562 17.964844 61.464844 C 18.007812 61.488281 18.054688 61.507812 18.097656 61.527344 C 18.085938 61.519531 18.070312 61.515625 18.054688 61.507812 Z M 18.367188 61.636719 L 18.355469 61.632812 C 18.3125 61.617188 18.273438 61.601562 18.222656 61.582031 C 18.195312 61.570312 18.171875 61.558594 18.136719 61.546875 C 18.152344 61.554688 18.167969 61.5625 18.183594 61.566406 C 18.265625 61.601562 18.347656 61.632812 18.433594 61.660156 C 18.410156 61.652344 18.390625 61.644531 18.367188 61.636719 Z M 19.625 61.871094 C 19.632812 61.875 19.644531 61.875 19.652344 61.875 L 19.695312 61.875 C 19.671875 61.875 19.648438 61.875 19.625 61.871094 Z M 19.992188 52.359375 L 19.648438 52.695312 L 17.003906 55.285156 C 16.273438 56.003906 15.863281 56.964844 15.851562 57.992188 C 15.847656 58.128906 15.855469 58.261719 15.871094 58.398438 C 15.765625 57.257812 16.171875 56.105469 17.007812 55.285156 L 19.652344 52.695312 L 19.996094 52.359375 L 20.335938 52.023438 Z M 20.457031 61.796875 C 20.546875 61.78125 20.636719 61.757812 20.726562 61.734375 C 20.636719 61.757812 20.546875 61.78125 20.457031 61.796875 Z M 22.441406 60.703125 L 22.242188 60.90625 C 22.289062 60.863281 22.335938 60.820312 22.378906 60.777344 L 22.449219 60.707031 Z M 22.515625 64.796875 L 22.515625 64.835938 C 22.515625 64.792969 22.515625 64.746094 22.519531 64.703125 C 22.515625 64.734375 22.515625 64.765625 22.515625 64.796875 Z M 22.792969 63.402344 C 22.804688 63.375 22.816406 63.347656 22.828125 63.320312 C 22.863281 63.238281 22.902344 63.152344 22.949219 63.0625 C 22.960938 63.042969 22.96875 63.023438 22.980469 63.003906 C 22.90625 63.132812 22.84375 63.261719 22.792969 63.402344 Z M 23.109375 62.78125 C 23.148438 62.71875 23.191406 62.65625 23.234375 62.597656 C 23.191406 62.65625 23.148438 62.71875 23.109375 62.78125 Z M 25.066406 68.453125 C 25.011719 68.4375 24.957031 68.414062 24.910156 68.394531 C 25 68.433594 25.09375 68.46875 25.191406 68.496094 Z M 23.667969 62.089844 C 23.507812 62.246094 23.363281 62.417969 23.234375 62.597656 C 23.363281 62.417969 23.511719 62.246094 23.667969 62.09375 L 26.457031 59.359375 Z M 27.144531 58.6875 L 26.457031 59.359375 L 27.144531 58.6875 L 28.464844 57.394531 Z M 31.976562 39.601562 L 31.976562 39.605469 Z M 31.972656 39.597656 L 31.976562 39.601562 Z M 31.890625 38.824219 L 31.863281 38.792969 L 31.890625 38.824219 L 31.894531 38.824219 Z M 27.0625 45.28125 L 25.777344 46.59375 L 25.828125 46.648438 L 27.144531 45.359375 Z M 38.207031 45.28125 L 38.128906 45.359375 L 39.441406 46.648438 L 39.496094 46.59375 L 38.207031 45.28125 "/></g><path style=" stroke:none;fill-rule:nonzero;fill:#5271ff;fill-opacity:1;" d="M 31.976562 39.601562 L 31.972656 39.597656 Z M 31.976562 39.601562 "/><path style=" stroke:none;fill-rule:nonzero;fill:#5271ff;fill-opacity:1;" d="M 31.976562 39.601562 L 31.972656 39.597656 Z M 31.976562 39.601562 "/><path style=" stroke:none;fill-rule:nonzero;fill:#5271ff;fill-opacity:1;" d="M 32.160156 40.457031 L 32.148438 40.464844 L 32.144531 40.460938 L 32.15625 40.449219 L 32.160156 40.457031 "/><path style=" stroke:none;fill-rule:nonzero;fill:#5271ff;fill-opacity:1;" d="M 20.335938 52.023438 L 19.996094 52.359375 L 19.992188 52.359375 Z M 20.335938 52.023438 "/><path style=" stroke:none;fill-rule:nonzero;fill:#5271ff;fill-opacity:1;" d="M 28.464844 57.394531 L 27.144531 58.6875 L 26.800781 59.023438 L 27.144531 58.6875 L 28.464844 57.394531 "/><path style=" stroke:none;fill-rule:nonzero;fill:#5271ff;fill-opacity:1;" d="M 23.628906 22.140625 C 23.609375 22.261719 23.59375 22.386719 23.585938 22.507812 C 23.59375 22.386719 23.609375 22.265625 23.628906 22.140625 "/><path style=" stroke:none;fill-rule:nonzero;fill:#5271ff;fill-opacity:1;" d="M 23.738281 24.144531 C 23.664062 23.871094 23.613281 23.589844 23.589844 23.304688 C 23.617188 23.589844 23.667969 23.871094 23.738281 24.144531 "/><path style=" stroke:none;fill-rule:nonzero;fill:#5271ff;fill-opacity:1;" d="M 31.949219 12.648438 L 25.007812 19.445312 Z M 31.949219 12.648438 "/><path style=" stroke:none;fill-rule:nonzero;fill:#5271ff;fill-opacity:1;" d="M 24.105469 25.085938 C 24.015625 24.914062 23.9375 24.738281 23.871094 24.558594 C 23.9375 24.738281 24.015625 24.914062 24.105469 25.085938 "/><path style=" stroke:none;fill-rule:nonzero;fill:#5271ff;fill-opacity:1;" d="M 27.144531 45.359375 L 25.828125 46.648438 L 25.777344 46.59375 L 27.0625 45.28125 L 27.144531 45.359375 "/><path style=" stroke:none;fill-rule:nonzero;fill:#5271ff;fill-opacity:1;" d="M 31.894531 38.824219 L 31.890625 38.824219 L 31.863281 38.792969 L 31.890625 38.824219 L 31.894531 38.824219 "/><path style=" stroke:none;fill-rule:nonzero;fill:#5271ff;fill-opacity:1;" d="M 31.976562 39.601562 L 31.972656 39.597656 Z M 31.976562 39.601562 "/><path style=" stroke:none;fill-rule:nonzero;fill:#5271ff;fill-opacity:1;" d="M 32.160156 40.457031 L 32.148438 40.464844 L 32.144531 40.460938 L 32.15625 40.449219 L 32.160156 40.457031 "/><path style=" stroke:none;fill-rule:nonzero;fill:#5271ff;fill-opacity:1;" d="M 39.496094 46.59375 L 39.441406 46.648438 L 38.128906 45.359375 L 38.207031 45.28125 L 39.496094 46.59375 "/><g clip-rule="nonzero" clip-path="url(#f7dcd693e3)"><path style=" stroke:none;fill-rule:nonzero;fill:#5271ff;fill-opacity:1;" d="M 32.148438 40.464844 L 32.144531 40.460938 L 32.15625 40.449219 L 32.160156 40.457031 Z M 31.976562 39.601562 L 31.972656 39.597656 L 31.976562 39.601562 L 31.976562 39.605469 Z M 31.890625 38.824219 L 31.863281 38.792969 L 31.890625 38.824219 L 31.894531 38.824219 Z M 61.59375 41.675781 L 59.234375 39.367188 L 58.546875 38.695312 L 38.8125 19.371094 L 31.726562 26.308594 C 29.835938 28.160156 26.789062 28.128906 24.9375 26.238281 C 24.851562 26.148438 24.769531 26.058594 24.691406 25.96875 C 24.589844 25.84375 24.492188 25.71875 24.402344 25.589844 C 24.382812 25.554688 24.359375 25.523438 24.339844 25.488281 C 24.273438 25.390625 24.214844 25.289062 24.160156 25.1875 C 24.140625 25.152344 24.121094 25.121094 24.105469 25.085938 C 24.015625 24.914062 23.9375 24.738281 23.871094 24.558594 C 23.871094 24.558594 23.871094 24.558594 23.871094 24.554688 C 23.820312 24.421875 23.777344 24.285156 23.738281 24.144531 C 23.664062 23.871094 23.613281 23.589844 23.589844 23.304688 C 23.589844 23.304688 23.589844 23.304688 23.589844 23.300781 C 23.585938 23.230469 23.578125 23.160156 23.578125 23.09375 L 23.578125 23.085938 C 23.574219 23.019531 23.574219 22.957031 23.574219 22.890625 L 23.574219 22.871094 C 23.574219 22.839844 23.574219 22.8125 23.574219 22.785156 C 23.574219 22.757812 23.574219 22.730469 23.574219 22.703125 L 23.574219 22.691406 C 23.578125 22.628906 23.582031 22.570312 23.585938 22.507812 C 23.59375 22.386719 23.609375 22.265625 23.628906 22.140625 C 23.671875 21.839844 23.746094 21.539062 23.851562 21.25 C 24.082031 20.601562 24.457031 19.996094 24.972656 19.480469 L 25.007812 19.445312 L 31.949219 12.648438 L 29.792969 10.539062 C 26.867188 7.671875 22.796875 6.316406 18.339844 6.714844 C 13.855469 7.117188 9.511719 9.253906 6.113281 12.722656 C 2.714844 16.191406 0.675781 20.578125 0.363281 25.074219 C 0.0585938 29.539062 1.5 33.578125 4.429688 36.445312 L 6.039062 38.019531 L 7.804688 36.292969 C 8.332031 35.773438 8.957031 35.394531 9.640625 35.167969 C 9.929688 35.070312 10.230469 35 10.535156 34.960938 C 10.757812 34.933594 10.984375 34.917969 11.214844 34.921875 C 12.496094 34.933594 13.699219 35.445312 14.59375 36.363281 C 15.492188 37.28125 15.980469 38.492188 15.964844 39.773438 C 15.964844 40.003906 15.945312 40.230469 15.910156 40.453125 C 15.863281 40.757812 15.789062 41.058594 15.6875 41.34375 C 15.515625 41.828125 15.265625 42.277344 14.945312 42.6875 C 15.359375 42.371094 15.816406 42.132812 16.304688 41.96875 C 16.59375 41.871094 16.894531 41.804688 17.199219 41.765625 C 17.421875 41.734375 17.648438 41.722656 17.878906 41.726562 C 19.160156 41.738281 20.359375 42.25 21.257812 43.167969 C 22.15625 44.085938 22.644531 45.296875 22.628906 46.578125 C 22.625 46.808594 22.609375 47.035156 22.574219 47.257812 C 22.527344 47.5625 22.453125 47.863281 22.351562 48.148438 C 22.179688 48.632812 21.929688 49.082031 21.605469 49.492188 C 22.027344 49.175781 22.484375 48.941406 22.964844 48.78125 C 23.257812 48.679688 23.558594 48.613281 23.863281 48.574219 C 25.308594 48.382812 26.824219 48.851562 27.921875 49.972656 C 29.019531 51.097656 29.457031 52.625 29.234375 54.066406 C 29.1875 54.371094 29.113281 54.667969 29.007812 54.960938 C 28.839844 55.433594 28.589844 55.886719 28.265625 56.300781 C 28.6875 55.984375 29.148438 55.746094 29.625 55.585938 C 29.921875 55.488281 30.222656 55.417969 30.523438 55.378906 C 31.972656 55.191406 33.488281 55.65625 34.585938 56.777344 C 35.683594 57.898438 36.121094 59.425781 35.898438 60.871094 C 35.851562 61.171875 35.777344 61.472656 35.671875 61.765625 C 35.4375 62.425781 35.050781 63.046875 34.515625 63.570312 L 33.320312 64.738281 L 36.226562 67.582031 C 36.957031 68.300781 37.933594 68.691406 38.953125 68.679688 C 39.980469 68.667969 40.941406 68.257812 41.660156 67.523438 C 42.378906 66.792969 42.765625 65.824219 42.753906 64.796875 C 42.746094 63.769531 42.335938 62.808594 41.601562 62.09375 L 38.8125 59.363281 L 38.46875 59.023438 L 38.125 58.6875 L 32.636719 53.3125 L 32.292969 52.976562 L 31.664062 52.359375 L 31.320312 52.023438 L 25.828125 46.648438 L 25.777344 46.59375 L 27.0625 45.28125 L 27.144531 45.359375 L 32.636719 50.738281 L 32.980469 51.074219 L 33.605469 51.6875 L 33.949219 52.023438 L 39.441406 57.402344 L 40.128906 58.074219 L 42.890625 60.777344 C 44.402344 62.257812 46.839844 62.234375 48.320312 60.71875 C 49.804688 59.207031 49.777344 56.769531 48.265625 55.285156 L 45.621094 52.699219 L 45.277344 52.359375 L 44.933594 52.023438 L 39.441406 46.648438 L 38.128906 45.359375 L 32.667969 40.011719 L 32.628906 39.976562 L 32.433594 39.78125 L 32.808594 39.40625 C 32.832031 39.386719 32.851562 39.363281 32.875 39.34375 L 32.886719 39.332031 C 32.953125 39.265625 33.015625 39.203125 33.082031 39.132812 C 33.152344 39.0625 33.21875 38.996094 33.277344 38.929688 C 33.316406 38.890625 33.34375 38.859375 33.375 38.828125 L 33.710938 38.46875 L 34.066406 38.808594 L 46.25 50.734375 L 46.9375 51.40625 L 49.554688 53.972656 C 51.066406 55.453125 53.503906 55.425781 54.988281 53.914062 C 55.703125 53.179688 56.09375 52.210938 56.082031 51.1875 C 56.070312 50.160156 55.664062 49.199219 54.929688 48.480469 L 52.425781 46.03125 L 51.738281 45.359375 L 39.105469 32.984375 L 40.390625 31.667969 L 53.054688 44.070312 L 53.742188 44.742188 L 56.21875 47.167969 C 56.949219 47.882812 57.917969 48.273438 58.945312 48.261719 C 59.972656 48.25 60.929688 47.84375 61.648438 47.109375 C 62.382812 46.363281 62.746094 45.390625 62.746094 44.421875 C 62.746094 43.425781 62.359375 42.425781 61.59375 41.675781 "/></g><path style=" stroke:none;fill-rule:nonzero;fill:#5271ff;fill-opacity:1;" d="M 27.0625 45.28125 L 25.777344 46.59375 L 25.828125 46.648438 L 27.144531 45.359375 Z M 19.992188 52.359375 L 19.648438 52.695312 L 19.652344 52.695312 L 19.996094 52.359375 L 20.335938 52.023438 Z M 27.144531 58.6875 L 26.457031 59.359375 Z M 27.0625 45.28125 L 25.777344 46.59375 L 25.828125 46.648438 L 27.144531 45.359375 Z M 38.207031 45.28125 L 38.128906 45.359375 L 39.441406 46.648438 L 39.496094 46.59375 Z M 23.871094 24.558594 C 23.9375 24.738281 24.015625 24.914062 24.105469 25.085938 C 24.015625 24.914062 23.9375 24.738281 23.871094 24.558594 Z M 23.585938 22.507812 C 23.59375 22.386719 23.609375 22.261719 23.628906 22.140625 C 23.609375 22.265625 23.59375 22.386719 23.585938 22.507812 Z M 23.589844 23.304688 C 23.613281 23.589844 23.664062 23.871094 23.738281 24.144531 C 23.667969 23.871094 23.617188 23.589844 23.589844 23.304688 "/><path style=" stroke:none;fill-rule:nonzero;fill:#5271ff;fill-opacity:1;" d="M 31.949219 12.648438 L 25.007812 19.445312 Z M 31.949219 12.648438 "/><path style=" stroke:none;fill-rule:nonzero;fill:#5271ff;fill-opacity:1;" d="M 16.921875 60.691406 C 16.933594 60.703125 16.941406 60.710938 16.949219 60.71875 C 16.9375 60.710938 16.929688 60.703125 16.921875 60.691406 "/><path style=" stroke:none;fill-rule:nonzero;fill:#5271ff;fill-opacity:1;" d="M 17.804688 61.378906 C 17.824219 61.386719 17.84375 61.398438 17.863281 61.410156 C 17.835938 61.398438 17.816406 61.382812 17.792969 61.371094 L 17.804688 61.378906 "/><path style=" stroke:none;fill-rule:nonzero;fill:#5271ff;fill-opacity:1;" d="M 18.054688 61.507812 C 18.070312 61.515625 18.085938 61.519531 18.097656 61.527344 C 18.054688 61.507812 18.007812 61.488281 17.964844 61.464844 C 17.996094 61.476562 18.023438 61.492188 18.054688 61.507812 "/><path style=" stroke:none;fill-rule:nonzero;fill:#5271ff;fill-opacity:1;" d="M 18.367188 61.636719 C 18.390625 61.644531 18.410156 61.652344 18.433594 61.660156 C 18.347656 61.632812 18.265625 61.601562 18.183594 61.566406 C 18.167969 61.5625 18.152344 61.554688 18.136719 61.546875 C 18.171875 61.558594 18.195312 61.570312 18.222656 61.582031 C 18.273438 61.601562 18.3125 61.617188 18.355469 61.632812 L 18.367188 61.636719 "/><path style=" stroke:none;fill-rule:nonzero;fill:#5271ff;fill-opacity:1;" d="M 19.625 61.871094 C 19.648438 61.875 19.671875 61.875 19.695312 61.875 L 19.652344 61.875 C 19.644531 61.875 19.632812 61.875 19.625 61.871094 "/><path style=" stroke:none;fill-rule:nonzero;fill:#5271ff;fill-opacity:1;" d="M 19.992188 52.359375 L 20.335938 52.023438 L 19.996094 52.359375 L 19.652344 52.695312 L 17.007812 55.285156 C 16.171875 56.105469 15.765625 57.257812 15.871094 58.398438 C 15.855469 58.261719 15.847656 58.128906 15.851562 57.992188 C 15.863281 56.964844 16.273438 56.003906 17.003906 55.285156 L 19.648438 52.695312 L 19.992188 52.359375 "/><path style=" stroke:none;fill-rule:nonzero;fill:#5271ff;fill-opacity:1;" d="M 20.457031 61.796875 C 20.546875 61.78125 20.636719 61.757812 20.726562 61.734375 C 20.636719 61.757812 20.546875 61.78125 20.457031 61.796875 "/><path style=" stroke:none;fill-rule:nonzero;fill:#5271ff;fill-opacity:1;" d="M 22.449219 60.707031 L 22.378906 60.777344 C 22.335938 60.820312 22.289062 60.863281 22.242188 60.90625 L 22.441406 60.703125 L 22.449219 60.707031 "/><g clip-rule="nonzero" clip-path="url(#196ceb2570)"><path style=" stroke:none;fill-rule:nonzero;fill:#5271ff;fill-opacity:1;" d="M 60.84375 36.445312 L 59.234375 38.023438 L 38.8125 18.027344 L 31.054688 25.621094 C 29.542969 27.105469 27.105469 27.078125 25.625 25.566406 C 24.15625 24.066406 24.167969 21.640625 25.652344 20.160156 L 25.679688 20.132812 L 32.972656 12.992188 L 33.097656 12.867188 L 33.320312 12.648438 L 34.90625 11.097656 L 35.476562 10.539062 C 38.402344 7.671875 42.472656 6.316406 46.929688 6.714844 C 51.417969 7.117188 55.761719 9.253906 59.15625 12.722656 C 66.152344 19.863281 66.910156 30.507812 60.84375 36.445312 "/></g><path style=" stroke:none;fill-rule:nonzero;fill:#5271ff;fill-opacity:1;" d="M 33.320312 12.648438 L 33.097656 12.867188 L 32.972656 12.992188 L 34.90625 11.097656 Z M 33.320312 12.648438 L 33.097656 12.867188 L 32.972656 12.992188 L 34.90625 11.097656 Z M 23.871094 24.558594 C 23.9375 24.738281 24.015625 24.914062 24.105469 25.085938 C 24.015625 24.914062 23.9375 24.738281 23.871094 24.558594 Z M 23.585938 22.507812 C 23.59375 22.386719 23.609375 22.261719 23.628906 22.140625 C 23.609375 22.265625 23.59375 22.386719 23.585938 22.507812 Z M 23.589844 23.304688 C 23.613281 23.589844 23.664062 23.871094 23.738281 24.144531 C 23.667969 23.871094 23.617188 23.589844 23.589844 23.304688 "/><path style=" stroke:none;fill-rule:nonzero;fill:#5271ff;fill-opacity:1;" d="M 15.003906 39.761719 C 14.996094 40.789062 14.585938 41.75 13.851562 42.46875 L 12.214844 44.070312 L 11.871094 44.40625 L 11.53125 44.742188 L 9.054688 47.167969 C 8.898438 47.316406 8.734375 47.453125 8.5625 47.570312 C 8.527344 47.597656 8.492188 47.621094 8.457031 47.644531 C 8.402344 47.679688 8.347656 47.710938 8.296875 47.742188 C 8.226562 47.785156 8.160156 47.820312 8.089844 47.855469 C 8.046875 47.875 8.007812 47.894531 7.964844 47.914062 C 7.910156 47.941406 7.851562 47.964844 7.792969 47.988281 C 7.734375 48.011719 7.671875 48.035156 7.609375 48.054688 C 7.511719 48.089844 7.40625 48.121094 7.304688 48.144531 C 7.179688 48.175781 7.054688 48.203125 6.925781 48.21875 C 6.890625 48.226562 6.855469 48.230469 6.820312 48.234375 C 6.769531 48.242188 6.714844 48.246094 6.667969 48.25 C 6.660156 48.25 6.65625 48.25 6.648438 48.25 C 6.558594 48.257812 6.460938 48.261719 6.367188 48.261719 C 5.996094 48.261719 5.625 48.207031 5.265625 48.101562 C 5.117188 48.058594 4.96875 48.003906 4.824219 47.941406 C 4.792969 47.925781 4.761719 47.910156 4.726562 47.894531 C 4.671875 47.867188 4.613281 47.839844 4.558594 47.8125 C 4.507812 47.785156 4.460938 47.757812 4.410156 47.726562 L 4.382812 47.710938 C 4.34375 47.6875 4.304688 47.664062 4.265625 47.636719 L 4.144531 47.554688 C 4.113281 47.53125 4.082031 47.507812 4.050781 47.484375 L 3.621094 47.109375 C 3.484375 46.96875 3.359375 46.820312 3.25 46.667969 C 3.210938 46.613281 3.175781 46.5625 3.140625 46.511719 C 3.09375 46.441406 3.050781 46.367188 3.011719 46.292969 C 2.988281 46.257812 2.972656 46.222656 2.953125 46.1875 C 2.933594 46.152344 2.914062 46.113281 2.898438 46.078125 C 2.867188 46.011719 2.835938 45.945312 2.808594 45.878906 C 2.808594 45.875 2.808594 45.875 2.808594 45.871094 C 2.601562 45.363281 2.511719 44.820312 2.527344 44.28125 C 2.53125 44.238281 2.53125 44.195312 2.535156 44.148438 C 2.539062 44.105469 2.542969 44.0625 2.546875 44.019531 C 2.554688 43.957031 2.5625 43.890625 2.570312 43.828125 C 2.578125 43.785156 2.585938 43.746094 2.59375 43.703125 C 2.605469 43.636719 2.617188 43.570312 2.636719 43.503906 C 2.644531 43.472656 2.652344 43.445312 2.660156 43.410156 C 2.679688 43.332031 2.703125 43.253906 2.730469 43.179688 C 2.757812 43.089844 2.792969 43.003906 2.832031 42.917969 C 2.847656 42.875 2.867188 42.828125 2.890625 42.78125 C 2.917969 42.726562 2.945312 42.667969 2.976562 42.613281 C 3 42.5625 3.03125 42.515625 3.058594 42.464844 C 3.0625 42.457031 3.070312 42.445312 3.078125 42.4375 C 3.097656 42.398438 3.121094 42.359375 3.148438 42.320312 C 3.175781 42.28125 3.203125 42.238281 3.234375 42.199219 C 3.253906 42.167969 3.277344 42.136719 3.300781 42.105469 C 3.414062 41.953125 3.539062 41.808594 3.679688 41.675781 L 6.039062 39.363281 L 6.726562 38.691406 L 8.476562 36.976562 C 9.199219 36.269531 10.152344 35.882812 11.164062 35.882812 L 11.203125 35.882812 C 12.230469 35.890625 13.191406 36.300781 13.910156 37.035156 C 14.628906 37.769531 15.015625 38.738281 15.003906 39.761719 "/><path style=" stroke:none;fill-rule:nonzero;fill:#5271ff;fill-opacity:1;" d="M 6.882812 48.226562 C 6.898438 48.226562 6.910156 48.222656 6.925781 48.21875 C 6.941406 48.21875 6.957031 48.214844 6.972656 48.214844 C 6.941406 48.21875 6.910156 48.222656 6.882812 48.226562 "/><path style=" stroke:none;fill-rule:nonzero;fill:#5271ff;fill-opacity:1;" d="M 2.808594 45.871094 C 2.617188 45.402344 2.519531 44.898438 2.523438 44.378906 C 2.523438 44.347656 2.527344 44.3125 2.527344 44.28125 C 2.511719 44.820312 2.601562 45.363281 2.808594 45.871094 "/><path style=" stroke:none;fill-rule:nonzero;fill:#5271ff;fill-opacity:1;" d="M 6.367188 48.261719 C 6.460938 48.261719 6.558594 48.257812 6.648438 48.25 C 6.648438 48.253906 6.648438 48.253906 6.648438 48.253906 C 6.628906 48.253906 6.613281 48.253906 6.597656 48.257812 C 6.589844 48.257812 6.582031 48.257812 6.574219 48.257812 L 6.570312 48.257812 C 6.539062 48.261719 6.507812 48.261719 6.476562 48.261719 C 6.4375 48.261719 6.394531 48.261719 6.355469 48.261719 L 6.324219 48.261719 C 6.265625 48.261719 6.207031 48.261719 6.148438 48.257812 C 6.140625 48.257812 6.140625 48.257812 6.132812 48.257812 L 6.128906 48.257812 C 6.074219 48.253906 6.019531 48.25 5.964844 48.242188 C 5.945312 48.238281 5.929688 48.238281 5.910156 48.234375 C 5.882812 48.234375 5.855469 48.230469 5.828125 48.226562 C 5.816406 48.222656 5.804688 48.222656 5.792969 48.21875 C 5.789062 48.21875 5.789062 48.21875 5.785156 48.21875 C 5.78125 48.21875 5.777344 48.21875 5.777344 48.21875 C 5.773438 48.21875 5.773438 48.21875 5.769531 48.214844 C 5.757812 48.214844 5.742188 48.214844 5.726562 48.210938 C 5.707031 48.207031 5.6875 48.203125 5.667969 48.199219 C 5.664062 48.199219 5.660156 48.199219 5.65625 48.195312 C 5.632812 48.191406 5.605469 48.1875 5.582031 48.183594 C 5.582031 48.183594 5.578125 48.183594 5.574219 48.183594 C 5.5625 48.179688 5.550781 48.175781 5.535156 48.171875 C 5.519531 48.167969 5.503906 48.167969 5.488281 48.160156 C 5.460938 48.15625 5.433594 48.148438 5.40625 48.140625 C 5.402344 48.140625 5.402344 48.140625 5.398438 48.140625 C 5.371094 48.132812 5.34375 48.125 5.316406 48.117188 C 5.3125 48.117188 5.3125 48.117188 5.308594 48.113281 C 5.296875 48.109375 5.28125 48.109375 5.265625 48.101562 C 5.625 48.207031 5.996094 48.261719 6.367188 48.261719 "/><path style=" stroke:none;fill-rule:nonzero;fill:#5271ff;fill-opacity:1;" d="M 6.972656 48.214844 C 6.941406 48.21875 6.910156 48.222656 6.882812 48.226562 C 6.867188 48.230469 6.851562 48.230469 6.835938 48.234375 C 6.828125 48.234375 6.820312 48.234375 6.8125 48.234375 C 6.8125 48.234375 6.8125 48.238281 6.808594 48.238281 C 6.808594 48.234375 6.808594 48.238281 6.804688 48.238281 C 6.804688 48.238281 6.800781 48.238281 6.796875 48.238281 C 6.785156 48.238281 6.773438 48.242188 6.761719 48.242188 L 6.757812 48.242188 C 6.726562 48.246094 6.695312 48.25 6.667969 48.25 C 6.714844 48.246094 6.769531 48.242188 6.820312 48.234375 C 6.867188 48.230469 6.921875 48.222656 6.972656 48.214844 "/><path style=" stroke:none;fill-rule:nonzero;fill:#5271ff;fill-opacity:1;" d="M 6.367188 48.261719 C 5.996094 48.261719 5.625 48.207031 5.265625 48.101562 C 5.28125 48.109375 5.296875 48.109375 5.308594 48.113281 C 5.3125 48.117188 5.3125 48.117188 5.316406 48.117188 C 5.34375 48.125 5.371094 48.132812 5.398438 48.140625 C 5.402344 48.140625 5.402344 48.140625 5.40625 48.140625 C 5.433594 48.148438 5.460938 48.15625 5.488281 48.160156 C 5.503906 48.167969 5.519531 48.167969 5.535156 48.171875 C 5.550781 48.175781 5.5625 48.179688 5.574219 48.183594 C 5.578125 48.183594 5.582031 48.183594 5.582031 48.183594 C 5.605469 48.1875 5.632812 48.191406 5.65625 48.195312 C 5.660156 48.199219 5.664062 48.199219 5.667969 48.199219 C 5.6875 48.203125 5.707031 48.207031 5.726562 48.210938 C 5.742188 48.214844 5.757812 48.214844 5.769531 48.214844 C 5.773438 48.21875 5.773438 48.21875 5.777344 48.21875 C 5.777344 48.21875 5.78125 48.21875 5.785156 48.21875 C 5.789062 48.21875 5.789062 48.21875 5.792969 48.21875 C 5.804688 48.222656 5.816406 48.222656 5.828125 48.226562 C 5.855469 48.230469 5.882812 48.234375 5.910156 48.234375 C 5.929688 48.238281 5.945312 48.238281 5.964844 48.242188 C 6.019531 48.25 6.074219 48.253906 6.128906 48.257812 L 6.132812 48.257812 C 6.140625 48.257812 6.140625 48.257812 6.148438 48.257812 C 6.207031 48.261719 6.265625 48.261719 6.324219 48.261719 L 6.355469 48.261719 C 6.394531 48.261719 6.4375 48.261719 6.476562 48.261719 C 6.507812 48.261719 6.539062 48.261719 6.570312 48.257812 L 6.574219 48.257812 C 6.582031 48.257812 6.589844 48.257812 6.597656 48.257812 C 6.613281 48.253906 6.628906 48.253906 6.648438 48.253906 C 6.648438 48.253906 6.648438 48.253906 6.648438 48.25 C 6.558594 48.257812 6.460938 48.261719 6.367188 48.261719 Z M 6.820312 48.234375 C 6.824219 48.234375 6.832031 48.234375 6.835938 48.234375 C 6.851562 48.230469 6.867188 48.230469 6.882812 48.226562 C 6.910156 48.222656 6.941406 48.21875 6.972656 48.214844 C 6.921875 48.222656 6.867188 48.230469 6.820312 48.234375 Z M 6.667969 48.25 C 6.695312 48.25 6.726562 48.246094 6.757812 48.242188 L 6.761719 48.242188 C 6.773438 48.242188 6.785156 48.238281 6.796875 48.238281 C 6.800781 48.238281 6.804688 48.238281 6.804688 48.238281 C 6.808594 48.238281 6.808594 48.234375 6.808594 48.238281 C 6.8125 48.238281 6.8125 48.234375 6.8125 48.234375 C 6.816406 48.234375 6.816406 48.234375 6.820312 48.234375 C 6.769531 48.242188 6.714844 48.246094 6.667969 48.25 "/><path style=" stroke:none;fill-rule:nonzero;fill:#5271ff;fill-opacity:1;" d="M 21.667969 46.566406 C 21.65625 47.59375 21.246094 48.554688 20.515625 49.273438 L 19.019531 50.734375 L 18.679688 51.070312 L 18.335938 51.40625 L 15.71875 53.972656 C 15.574219 54.113281 15.421875 54.238281 15.265625 54.351562 C 15.214844 54.386719 15.167969 54.417969 15.121094 54.449219 C 15.066406 54.484375 15.015625 54.515625 14.960938 54.546875 C 14.90625 54.582031 14.851562 54.609375 14.796875 54.636719 C 14.738281 54.667969 14.683594 54.695312 14.628906 54.71875 C 14.597656 54.734375 14.5625 54.75 14.535156 54.761719 C 14.21875 54.898438 13.886719 54.988281 13.539062 55.035156 C 13.511719 55.039062 13.480469 55.039062 13.453125 55.042969 C 13.40625 55.050781 13.363281 55.054688 13.316406 55.054688 C 13.191406 55.066406 13.0625 55.070312 12.933594 55.066406 C 12.902344 55.066406 12.871094 55.066406 12.835938 55.0625 C 12.804688 55.0625 12.773438 55.058594 12.738281 55.054688 C 12.707031 55.054688 12.675781 55.050781 12.640625 55.046875 C 12.609375 55.042969 12.578125 55.039062 12.546875 55.039062 C 12.464844 55.027344 12.382812 55.011719 12.300781 54.996094 C 12.019531 54.945312 11.75 54.859375 11.488281 54.746094 C 11.457031 54.730469 11.425781 54.714844 11.390625 54.699219 C 11.332031 54.675781 11.277344 54.644531 11.222656 54.617188 C 11.183594 54.597656 11.148438 54.574219 11.113281 54.554688 C 11.082031 54.539062 11.054688 54.523438 11.023438 54.503906 C 10.960938 54.464844 10.898438 54.421875 10.832031 54.375 C 10.742188 54.316406 10.652344 54.246094 10.5625 54.171875 C 10.515625 54.132812 10.46875 54.089844 10.421875 54.046875 C 10.375 54.003906 10.328125 53.960938 10.285156 53.914062 C 9.085938 52.6875 8.871094 50.855469 9.640625 49.417969 C 9.699219 49.304688 9.765625 49.195312 9.835938 49.085938 C 9.980469 48.871094 10.148438 48.667969 10.34375 48.480469 L 12.84375 46.03125 L 13.53125 45.359375 L 15.140625 43.78125 C 15.863281 43.074219 16.816406 42.6875 17.828125 42.6875 C 17.839844 42.6875 17.855469 42.6875 17.867188 42.6875 C 18.894531 42.699219 19.855469 43.105469 20.570312 43.839844 C 21.289062 44.574219 21.679688 45.542969 21.667969 46.566406 "/><path style=" stroke:none;fill-rule:nonzero;fill:#5271ff;fill-opacity:1;" d="M 13.265625 55.0625 C 13.28125 55.058594 13.300781 55.058594 13.316406 55.054688 C 13.324219 55.054688 13.332031 55.054688 13.339844 55.054688 C 13.316406 55.058594 13.289062 55.058594 13.265625 55.0625 "/><path style=" stroke:none;fill-rule:nonzero;fill:#5271ff;fill-opacity:1;" d="M 10.34375 48.480469 C 10.148438 48.667969 9.980469 48.871094 9.835938 49.085938 C 9.980469 48.871094 10.148438 48.667969 10.339844 48.480469 L 10.34375 48.480469 "/><path style=" stroke:none;fill-rule:nonzero;fill:#5271ff;fill-opacity:1;" d="M 10.285156 53.914062 C 10.328125 53.960938 10.375 54.003906 10.421875 54.046875 C 10.375 54.003906 10.328125 53.960938 10.285156 53.914062 "/><path style=" stroke:none;fill-rule:nonzero;fill:#5271ff;fill-opacity:1;" d="M 12.300781 54.996094 C 12.382812 55.011719 12.464844 55.027344 12.546875 55.039062 C 12.503906 55.03125 12.464844 55.027344 12.421875 55.019531 C 12.390625 55.015625 12.359375 55.007812 12.328125 55.003906 C 12.324219 55.003906 12.320312 55.003906 12.316406 55 C 12.3125 55 12.304688 55 12.300781 54.996094 "/><path style=" stroke:none;fill-rule:nonzero;fill:#5271ff;fill-opacity:1;" d="M 12.546875 55.039062 C 12.578125 55.039062 12.609375 55.042969 12.640625 55.046875 C 12.628906 55.046875 12.613281 55.046875 12.597656 55.042969 C 12.582031 55.042969 12.5625 55.039062 12.546875 55.039062 "/><path style=" stroke:none;fill-rule:nonzero;fill:#5271ff;fill-opacity:1;" d="M 12.738281 55.054688 C 12.773438 55.058594 12.804688 55.0625 12.835938 55.0625 C 12.824219 55.0625 12.8125 55.0625 12.800781 55.0625 C 12.792969 55.0625 12.78125 55.0625 12.773438 55.058594 C 12.761719 55.058594 12.75 55.058594 12.738281 55.054688 "/><path style=" stroke:none;fill-rule:nonzero;fill:#5271ff;fill-opacity:1;" d="M 12.933594 55.066406 C 13.070312 55.070312 13.207031 55.066406 13.339844 55.054688 C 13.316406 55.058594 13.289062 55.058594 13.265625 55.0625 C 13.238281 55.0625 13.214844 55.066406 13.1875 55.066406 C 13.136719 55.066406 13.082031 55.066406 13.03125 55.066406 L 12.988281 55.066406 C 12.96875 55.066406 12.949219 55.066406 12.933594 55.066406 "/><path style=" stroke:none;fill-rule:nonzero;fill:#5271ff;fill-opacity:1;" d="M 13.539062 55.035156 C 13.519531 55.039062 13.5 55.039062 13.476562 55.042969 C 13.46875 55.042969 13.460938 55.042969 13.453125 55.042969 C 13.480469 55.039062 13.511719 55.039062 13.539062 55.035156 "/><path style=" stroke:none;fill-rule:nonzero;fill:#5271ff;fill-opacity:1;" d="M 13.453125 55.042969 C 13.460938 55.042969 13.46875 55.042969 13.476562 55.042969 C 13.5 55.039062 13.519531 55.039062 13.539062 55.035156 C 13.511719 55.039062 13.480469 55.039062 13.453125 55.042969 Z M 12.933594 55.066406 C 12.949219 55.066406 12.96875 55.066406 12.988281 55.066406 L 13.03125 55.066406 C 13.082031 55.066406 13.136719 55.066406 13.1875 55.066406 C 13.214844 55.066406 13.238281 55.0625 13.265625 55.0625 C 13.289062 55.058594 13.316406 55.058594 13.339844 55.054688 C 13.207031 55.066406 13.070312 55.070312 12.933594 55.066406 Z M 12.738281 55.054688 C 12.707031 55.054688 12.675781 55.050781 12.640625 55.046875 C 12.609375 55.042969 12.578125 55.039062 12.546875 55.039062 C 12.464844 55.027344 12.382812 55.011719 12.300781 54.996094 C 12.304688 55 12.3125 55 12.316406 55 C 12.320312 55.003906 12.324219 55.003906 12.328125 55.003906 C 12.359375 55.007812 12.390625 55.015625 12.421875 55.019531 C 12.480469 55.03125 12.539062 55.039062 12.597656 55.042969 C 12.65625 55.050781 12.714844 55.054688 12.773438 55.058594 C 12.78125 55.0625 12.792969 55.0625 12.800781 55.0625 C 12.8125 55.0625 12.824219 55.0625 12.835938 55.0625 C 12.804688 55.0625 12.773438 55.058594 12.738281 55.054688 "/><path style=" stroke:none;fill-rule:nonzero;fill:#5271ff;fill-opacity:1;" d="M 27.179688 56.078125 L 25.828125 57.402344 L 25.484375 57.738281 L 25.144531 58.074219 L 22.453125 60.707031 L 22.449219 60.707031 L 22.441406 60.703125 L 22.242188 60.90625 L 22.226562 60.921875 C 22.136719 61 22.042969 61.074219 21.953125 61.140625 C 21.832031 61.226562 21.710938 61.304688 21.585938 61.375 C 21.558594 61.390625 21.53125 61.40625 21.503906 61.421875 C 21.488281 61.429688 21.472656 61.4375 21.457031 61.445312 C 21.429688 61.460938 21.402344 61.476562 21.375 61.488281 C 21.371094 61.488281 21.367188 61.492188 21.363281 61.492188 C 21.328125 61.511719 21.292969 61.527344 21.257812 61.539062 C 21.253906 61.546875 21.246094 61.546875 21.238281 61.550781 C 21.199219 61.566406 21.160156 61.585938 21.121094 61.597656 C 21.078125 61.617188 21.035156 61.632812 20.992188 61.648438 C 20.949219 61.664062 20.902344 61.679688 20.859375 61.691406 C 20.816406 61.707031 20.773438 61.71875 20.726562 61.734375 C 20.636719 61.757812 20.546875 61.78125 20.457031 61.796875 C 20.429688 61.804688 20.398438 61.808594 20.371094 61.8125 C 20.277344 61.832031 20.1875 61.84375 20.089844 61.851562 C 20.070312 61.855469 20.050781 61.859375 20.03125 61.859375 C 20.011719 61.859375 19.996094 61.863281 19.976562 61.863281 C 19.949219 61.863281 19.921875 61.867188 19.894531 61.867188 C 19.828125 61.871094 19.761719 61.875 19.695312 61.875 C 19.671875 61.875 19.648438 61.875 19.625 61.871094 C 19.621094 61.875 19.617188 61.875 19.617188 61.871094 C 19.597656 61.871094 19.574219 61.871094 19.554688 61.871094 C 19.542969 61.871094 19.527344 61.871094 19.511719 61.867188 C 19.492188 61.867188 19.476562 61.867188 19.457031 61.867188 C 19.433594 61.863281 19.40625 61.863281 19.382812 61.859375 C 19.367188 61.859375 19.355469 61.859375 19.34375 61.855469 C 19.324219 61.855469 19.308594 61.855469 19.292969 61.851562 C 19.261719 61.847656 19.234375 61.84375 19.203125 61.84375 C 19.128906 61.832031 19.050781 61.820312 18.972656 61.804688 C 18.941406 61.796875 18.90625 61.792969 18.875 61.785156 C 18.835938 61.777344 18.800781 61.769531 18.761719 61.757812 C 18.734375 61.753906 18.707031 61.746094 18.675781 61.738281 C 18.59375 61.714844 18.511719 61.691406 18.433594 61.660156 C 18.410156 61.652344 18.390625 61.644531 18.367188 61.636719 L 18.355469 61.632812 C 18.3125 61.617188 18.273438 61.601562 18.222656 61.582031 C 18.195312 61.570312 18.171875 61.558594 18.136719 61.546875 C 18.125 61.539062 18.109375 61.535156 18.097656 61.527344 C 18.085938 61.519531 18.070312 61.515625 18.054688 61.507812 C 18.023438 61.492188 17.996094 61.476562 17.964844 61.464844 L 17.863281 61.410156 C 17.84375 61.398438 17.824219 61.386719 17.804688 61.378906 L 17.792969 61.371094 L 17.742188 61.34375 C 17.722656 61.332031 17.703125 61.320312 17.683594 61.304688 L 17.546875 61.21875 C 17.527344 61.203125 17.503906 61.1875 17.480469 61.171875 L 17.402344 61.117188 C 17.363281 61.089844 17.324219 61.058594 17.289062 61.027344 C 17.25 60.996094 17.214844 60.96875 17.179688 60.9375 L 17.144531 60.90625 C 17.117188 60.882812 17.09375 60.859375 17.066406 60.832031 L 16.949219 60.71875 C 16.941406 60.710938 16.933594 60.703125 16.921875 60.691406 C 16.867188 60.636719 16.8125 60.574219 16.761719 60.511719 C 16.746094 60.5 16.734375 60.484375 16.722656 60.46875 C 16.660156 60.394531 16.601562 60.316406 16.550781 60.238281 C 16.515625 60.191406 16.480469 60.144531 16.453125 60.09375 C 16.425781 60.058594 16.402344 60.019531 16.378906 59.980469 C 16.378906 59.976562 16.375 59.972656 16.375 59.972656 C 16.347656 59.925781 16.324219 59.882812 16.300781 59.835938 C 16.285156 59.808594 16.273438 59.785156 16.261719 59.757812 C 16.242188 59.722656 16.226562 59.6875 16.207031 59.652344 C 16.1875 59.613281 16.171875 59.574219 16.15625 59.53125 C 16.140625 59.5 16.128906 59.464844 16.113281 59.433594 C 16.054688 59.285156 16.007812 59.132812 15.96875 58.980469 C 15.957031 58.929688 15.945312 58.875 15.933594 58.824219 C 15.921875 58.773438 15.914062 58.722656 15.90625 58.671875 C 15.894531 58.617188 15.886719 58.566406 15.882812 58.515625 C 15.878906 58.472656 15.875 58.433594 15.871094 58.398438 C 15.765625 57.257812 16.171875 56.105469 17.007812 55.285156 L 19.652344 52.695312 L 19.996094 52.359375 L 20.335938 52.023438 L 20.339844 52.023438 L 21.804688 50.589844 C 21.808594 50.582031 21.816406 50.574219 21.824219 50.566406 L 21.871094 50.523438 C 21.875 50.515625 21.882812 50.511719 21.886719 50.511719 C 22.621094 49.832031 23.554688 49.492188 24.492188 49.492188 C 25.488281 49.492188 26.484375 49.878906 27.234375 50.644531 C 27.953125 51.378906 28.34375 52.347656 28.332031 53.375 C 28.320312 54.398438 27.914062 55.359375 27.179688 56.078125 "/><g clip-rule="nonzero" clip-path="url(#8cbe99e696)"><path style=" stroke:none;fill-rule:nonzero;fill:#5271ff;fill-opacity:1;" d="M 33.84375 62.882812 L 32.632812 64.066406 L 32.289062 64.402344 L 31.949219 64.738281 L 29.042969 67.582031 C 28.90625 67.71875 28.753906 67.847656 28.597656 67.957031 C 28.503906 68.027344 28.40625 68.089844 28.304688 68.148438 C 28.273438 68.167969 28.242188 68.1875 28.210938 68.203125 C 28.191406 68.214844 28.167969 68.226562 28.144531 68.238281 C 28.089844 68.265625 28.035156 68.296875 27.980469 68.320312 C 27.875 68.371094 27.769531 68.414062 27.664062 68.449219 C 27.640625 68.457031 27.621094 68.46875 27.597656 68.472656 C 27.550781 68.488281 27.507812 68.503906 27.460938 68.515625 C 27.414062 68.53125 27.371094 68.542969 27.324219 68.554688 C 27.300781 68.5625 27.277344 68.566406 27.253906 68.574219 C 27.132812 68.601562 27.015625 68.625 26.894531 68.640625 C 26.847656 68.648438 26.804688 68.652344 26.761719 68.65625 C 26.734375 68.660156 26.710938 68.664062 26.6875 68.664062 C 26.640625 68.667969 26.59375 68.671875 26.546875 68.671875 C 26.484375 68.675781 26.425781 68.679688 26.363281 68.679688 L 26.316406 68.679688 C 26.308594 68.679688 26.300781 68.679688 26.292969 68.675781 C 26.253906 68.675781 26.210938 68.675781 26.171875 68.671875 C 26.15625 68.671875 26.140625 68.671875 26.128906 68.671875 L 26.125 68.671875 C 26.078125 68.667969 26.03125 68.664062 25.980469 68.660156 C 25.96875 68.660156 25.957031 68.65625 25.945312 68.65625 C 25.9375 68.65625 25.925781 68.652344 25.914062 68.652344 C 25.875 68.648438 25.835938 68.644531 25.796875 68.636719 C 25.789062 68.636719 25.785156 68.636719 25.777344 68.632812 C 25.753906 68.628906 25.726562 68.625 25.703125 68.621094 C 25.671875 68.617188 25.644531 68.613281 25.617188 68.605469 C 25.585938 68.601562 25.554688 68.59375 25.527344 68.589844 C 25.496094 68.582031 25.464844 68.574219 25.433594 68.566406 C 25.402344 68.558594 25.371094 68.550781 25.339844 68.542969 C 25.289062 68.527344 25.238281 68.511719 25.191406 68.496094 L 25.066406 68.453125 C 25.011719 68.4375 24.957031 68.414062 24.910156 68.394531 C 24.898438 68.394531 24.890625 68.390625 24.882812 68.386719 C 24.859375 68.375 24.839844 68.367188 24.820312 68.359375 C 24.785156 68.34375 24.753906 68.328125 24.71875 68.3125 C 24.667969 68.289062 24.617188 68.265625 24.570312 68.238281 C 24.535156 68.21875 24.5 68.199219 24.46875 68.179688 C 24.351562 68.117188 24.242188 68.046875 24.136719 67.972656 C 24.105469 67.949219 24.070312 67.925781 24.039062 67.902344 C 24.011719 67.878906 23.980469 67.855469 23.953125 67.832031 C 23.910156 67.800781 23.867188 67.765625 23.828125 67.726562 C 23.792969 67.699219 23.757812 67.667969 23.722656 67.632812 C 23.6875 67.597656 23.648438 67.5625 23.613281 67.523438 C 23.542969 67.453125 23.476562 67.378906 23.414062 67.304688 C 23.367188 67.25 23.324219 67.195312 23.285156 67.140625 C 23.269531 67.125 23.257812 67.105469 23.246094 67.089844 C 23.214844 67.050781 23.1875 67.007812 23.160156 66.96875 C 23.148438 66.949219 23.136719 66.933594 23.125 66.914062 C 23.097656 66.875 23.078125 66.839844 23.054688 66.800781 C 23.050781 66.796875 23.046875 66.789062 23.042969 66.785156 C 23.039062 66.773438 23.035156 66.769531 23.03125 66.757812 C 23.023438 66.75 23.019531 66.742188 23.015625 66.734375 L 22.988281 66.679688 C 22.953125 66.621094 22.921875 66.558594 22.890625 66.496094 C 22.882812 66.476562 22.871094 66.457031 22.863281 66.433594 C 22.847656 66.402344 22.832031 66.371094 22.820312 66.339844 C 22.808594 66.316406 22.800781 66.289062 22.789062 66.265625 C 22.777344 66.234375 22.765625 66.207031 22.757812 66.179688 C 22.734375 66.125 22.714844 66.074219 22.699219 66.019531 C 22.695312 66 22.6875 65.980469 22.683594 65.960938 C 22.675781 65.941406 22.671875 65.921875 22.664062 65.902344 C 22.664062 65.898438 22.664062 65.894531 22.664062 65.890625 C 22.636719 65.804688 22.617188 65.71875 22.597656 65.632812 C 22.585938 65.578125 22.574219 65.523438 22.566406 65.472656 C 22.5625 65.457031 22.5625 65.445312 22.558594 65.429688 C 22.554688 65.394531 22.550781 65.355469 22.546875 65.320312 C 22.539062 65.28125 22.535156 65.242188 22.53125 65.203125 C 22.527344 65.15625 22.523438 65.105469 22.523438 65.054688 C 22.519531 65.027344 22.519531 65 22.519531 64.972656 C 22.515625 64.925781 22.515625 64.878906 22.515625 64.835938 C 22.515625 64.792969 22.515625 64.746094 22.519531 64.703125 C 22.515625 64.679688 22.519531 64.65625 22.519531 64.632812 C 22.523438 64.59375 22.523438 64.554688 22.527344 64.515625 C 22.527344 64.492188 22.53125 64.46875 22.535156 64.445312 C 22.535156 64.421875 22.539062 64.394531 22.542969 64.371094 C 22.546875 64.332031 22.550781 64.296875 22.558594 64.261719 C 22.5625 64.230469 22.570312 64.195312 22.574219 64.160156 C 22.585938 64.089844 22.601562 64.019531 22.617188 63.953125 C 22.617188 63.941406 22.621094 63.933594 22.625 63.925781 C 22.636719 63.859375 22.65625 63.792969 22.675781 63.730469 C 22.683594 63.699219 22.695312 63.667969 22.707031 63.640625 C 22.722656 63.585938 22.742188 63.535156 22.761719 63.480469 C 22.765625 63.460938 22.773438 63.445312 22.78125 63.429688 C 22.785156 63.417969 22.789062 63.410156 22.792969 63.402344 C 22.804688 63.375 22.816406 63.347656 22.828125 63.320312 C 22.863281 63.238281 22.902344 63.152344 22.949219 63.0625 C 22.960938 63.042969 22.96875 63.023438 22.980469 63.003906 C 22.988281 62.984375 23 62.964844 23.011719 62.945312 C 23.042969 62.886719 23.074219 62.832031 23.109375 62.78125 C 23.148438 62.71875 23.191406 62.65625 23.234375 62.597656 C 23.363281 62.417969 23.511719 62.246094 23.667969 62.09375 L 26.457031 59.359375 L 27.144531 58.6875 L 28.464844 57.394531 C 28.472656 57.386719 28.480469 57.378906 28.488281 57.371094 L 28.535156 57.328125 C 28.539062 57.320312 28.542969 57.320312 28.550781 57.316406 C 29.285156 56.636719 30.21875 56.296875 31.152344 56.296875 C 32.152344 56.296875 33.148438 56.683594 33.898438 57.449219 C 35.382812 58.964844 35.355469 61.398438 33.84375 62.882812 "/></g><path style=" stroke:none;fill-rule:nonzero;fill:#5271ff;fill-opacity:1;" d="M 22.515625 64.796875 C 22.515625 64.765625 22.515625 64.734375 22.519531 64.703125 C 22.515625 64.746094 22.515625 64.792969 22.515625 64.835938 L 22.515625 64.796875 "/><path style=" stroke:none;fill-rule:nonzero;fill:#5271ff;fill-opacity:1;" d="M 22.792969 63.402344 C 22.84375 63.261719 22.90625 63.132812 22.980469 63.003906 C 22.96875 63.023438 22.960938 63.042969 22.949219 63.0625 C 22.902344 63.152344 22.863281 63.238281 22.828125 63.320312 C 22.816406 63.347656 22.804688 63.375 22.792969 63.402344 "/><path style=" stroke:none;fill-rule:nonzero;fill:#5271ff;fill-opacity:1;" d="M 23.109375 62.78125 C 23.148438 62.71875 23.191406 62.65625 23.234375 62.597656 C 23.191406 62.65625 23.148438 62.71875 23.109375 62.78125 "/><g clip-rule="nonzero" clip-path="url(#3f4d1db16e)"><path style=" stroke:none;fill-rule:nonzero;fill:#5271ff;fill-opacity:1;" d="M 25.066406 68.453125 L 25.191406 68.496094 C 25.09375 68.46875 25 68.433594 24.910156 68.394531 C 24.957031 68.414062 25.011719 68.4375 25.066406 68.453125 "/></g><path style=" stroke:none;fill-rule:nonzero;fill:#5271ff;fill-opacity:1;" d="M 23.667969 62.089844 L 26.457031 59.359375 L 23.667969 62.09375 C 23.511719 62.246094 23.363281 62.417969 23.234375 62.597656 C 23.363281 62.417969 23.507812 62.246094 23.667969 62.089844 "/><path style=" stroke:none;fill-rule:nonzero;fill:#5271ff;fill-opacity:1;" d="M 28.464844 57.394531 L 27.144531 58.6875 L 26.457031 59.359375 L 27.144531 58.6875 L 28.464844 57.394531 "/><g style="fill:#000000;fill-opacity:1;"><g transform="translate(77.535428, 53.522199)"><path style="stroke:none" d="M 1.875 -9.578125 L 1.875 -12.625 L 6.796875 -12.625 L 6.796875 -9.203125 C 6.796875 -7.296875 6.957031 -5.957031 7.28125 -5.1875 C 7.601562 -4.425781 8.207031 -4.046875 9.09375 -4.046875 C 9.988281 -4.046875 10.582031 -4.359375 10.875 -4.984375 C 11.164062 -5.617188 11.3125 -6.65625 11.3125 -8.09375 C 11.3125 -9.53125 11.050781 -10.78125 10.53125 -11.84375 C 10.019531 -12.90625 9.203125 -14.019531 8.078125 -15.1875 L 5.5625 -17.78125 C 4.382812 -19 3.46875 -20.265625 2.8125 -21.578125 C 2.164062 -22.898438 1.84375 -24.425781 1.84375 -26.15625 C 1.84375 -28.96875 2.382812 -31.054688 3.46875 -32.421875 C 4.550781 -33.796875 6.414062 -34.484375 9.0625 -34.484375 C 11.707031 -34.484375 13.5 -33.6875 14.4375 -32.09375 C 15.375 -30.5 15.84375 -28.171875 15.84375 -25.109375 L 15.84375 -23 L 11.0625 -23 L 11.0625 -25.4375 C 11.0625 -27.09375 10.914062 -28.28125 10.625 -29 C 10.34375 -29.71875 9.796875 -30.078125 8.984375 -30.078125 C 8.179688 -30.078125 7.601562 -29.800781 7.25 -29.25 C 6.894531 -28.707031 6.71875 -27.894531 6.71875 -26.8125 C 6.71875 -25.726562 6.894531 -24.863281 7.25 -24.21875 C 7.613281 -23.570312 8.269531 -22.75 9.21875 -21.75 L 12.03125 -18.703125 C 13.4375 -17.179688 14.492188 -15.640625 15.203125 -14.078125 C 15.921875 -12.515625 16.28125 -10.8125 16.28125 -8.96875 C 16.28125 -5.78125 15.742188 -3.421875 14.671875 -1.890625 C 13.597656 -0.367188 11.722656 0.390625 9.046875 0.390625 C 6.367188 0.390625 4.503906 -0.457031 3.453125 -2.15625 C 2.398438 -3.851562 1.875 -6.328125 1.875 -9.578125 Z M 1.875 -9.578125 "/></g></g><g style="fill:#000000;fill-opacity:1;"><g transform="translate(96.762251, 53.522199)"><path style="stroke:none" d="M 7.359375 -9.46875 C 7.359375 -7.46875 7.507812 -6.070312 7.8125 -5.28125 C 8.113281 -4.5 8.734375 -4.109375 9.671875 -4.109375 C 10.617188 -4.109375 11.238281 -4.507812 11.53125 -5.3125 C 11.832031 -6.125 11.984375 -7.507812 11.984375 -9.46875 L 11.984375 -25.34375 C 11.984375 -26.957031 11.832031 -28.132812 11.53125 -28.875 C 11.226562 -29.625 10.632812 -30 9.75 -30 C 8.863281 -30 8.242188 -29.625 7.890625 -28.875 C 7.535156 -28.132812 7.359375 -26.960938 7.359375 -25.359375 Z M 17.1875 -9.53125 C 17.1875 -6.195312 16.59375 -3.707031 15.40625 -2.0625 C 14.21875 -0.425781 12.316406 0.390625 9.703125 0.390625 C 7.097656 0.390625 5.179688 -0.429688 3.953125 -2.078125 C 2.734375 -3.722656 2.125 -6.207031 2.125 -9.53125 L 2.125 -25.109375 C 2.125 -31.359375 4.675781 -34.484375 9.78125 -34.484375 C 12.414062 -34.484375 14.304688 -33.6875 15.453125 -32.09375 C 16.609375 -30.507812 17.1875 -28.179688 17.1875 -25.109375 Z M 17.1875 -9.53125 "/></g></g><g style="fill:#000000;fill-opacity:1;"><g transform="translate(117.808955, 53.522199)"><path style="stroke:none" d="M 16.9375 -9.296875 C 16.9375 -6.003906 16.347656 -3.566406 15.171875 -1.984375 C 14.003906 -0.398438 12.160156 0.390625 9.640625 0.390625 C 7.117188 0.390625 5.234375 -0.453125 3.984375 -2.140625 C 2.742188 -3.828125 2.125 -6.25 2.125 -9.40625 L 2.125 -24.265625 C 2.125 -29.335938 3.457031 -32.503906 6.125 -33.765625 C 7.101562 -34.234375 8.289062 -34.46875 9.6875 -34.46875 C 14.46875 -34.46875 16.859375 -31.445312 16.859375 -25.40625 L 16.859375 -20.71875 L 11.84375 -20.71875 L 11.84375 -25.078125 C 11.84375 -26.828125 11.691406 -28.078125 11.390625 -28.828125 C 11.097656 -29.585938 10.519531 -29.96875 9.65625 -29.96875 C 8.789062 -29.96875 8.191406 -29.566406 7.859375 -28.765625 C 7.523438 -27.972656 7.359375 -26.75 7.359375 -25.09375 L 7.359375 -9.171875 C 7.359375 -7.335938 7.519531 -6.023438 7.84375 -5.234375 C 8.164062 -4.453125 8.75 -4.0625 9.59375 -4.0625 C 10.445312 -4.0625 11.035156 -4.460938 11.359375 -5.265625 C 11.679688 -6.066406 11.84375 -7.390625 11.84375 -9.234375 L 11.84375 -14.109375 L 16.9375 -14.109375 Z M 16.9375 -9.296875 "/></g></g><g style="fill:#000000;fill-opacity:1;"><g transform="translate(138.119962, 53.522199)"><path style="stroke:none" d="M 2.75 0 L 2.75 -34.078125 L 7.9375 -34.078125 L 7.9375 0 Z M 2.75 0 "/></g></g><g style="fill:#000000;fill-opacity:1;"><g transform="translate(150.512551, 53.522199)"><path style="stroke:none" d="M 11.703125 -10.25 L 9.40625 -27.359375 L 9.328125 -27.359375 L 7.234375 -10.25 Z M 1 0 L 5.859375 -34.078125 L 12.71875 -34.078125 L 17.890625 0 L 13.046875 0 L 12.234375 -6.078125 L 6.734375 -6.078125 L 6 0 Z M 1 0 "/></g></g><g style="fill:#000000;fill-opacity:1;"><g transform="translate(171.113965, 53.522199)"><path style="stroke:none" d="M 2.5625 0 L 2.5625 -34.078125 L 7.75 -34.078125 L 7.75 -4.421875 L 14.3125 -4.421875 L 14.3125 0 Z M 2.5625 0 "/></g></g><g style="fill:#000000;fill-opacity:1;"><g transform="translate(187.552884, 53.522199)"><path style="stroke:none" d="M 2.5625 0 L 2.5625 -34.078125 L 7.75 -34.078125 L 7.75 -4.421875 L 14.3125 -4.421875 L 14.3125 0 Z M 2.5625 0 "/></g></g><g style="fill:#000000;fill-opacity:1;"><g transform="translate(203.991804, 53.522199)"><path style="stroke:none" d="M 5.890625 0 L 5.890625 -13.609375 L 0.171875 -34.078125 L 5.125 -34.078125 L 8.5 -21.34375 L 8.578125 -21.34375 L 11.578125 -34.078125 L 16.515625 -34.078125 L 11.078125 -13.609375 L 11.078125 0 Z M 5.890625 0 "/></g></g></g></svg>